<?xml version="1.0" encoding="UTF-8"?>
<!-- Generated by Pixelmator Pro 3.7.1 -->
<svg width="1024" height="1024" viewBox="0 0 1024 1024" xmlns="http://www.w3.org/2000/svg">
    <path id="Rectangle" fill="#1f5da8" fill-rule="evenodd" stroke="none" d="M -64.081711 1121.927734 L 1125.50415 1121.927734 L 1125.50415 -66.766357 L -64.081711 -66.766357 Z"/>
    <path id="Circle" fill="#47aa4f" fill-rule="evenodd" stroke="none" d="M 949 511.770874 C 949 270.343811 753.284729 74.62854 511.857727 74.62854 C 270.430695 74.62854 74.715424 270.343811 74.715424 511.770874 C 74.715424 753.197876 270.430695 948.913208 511.857727 948.913208 C 753.284729 948.913208 949 753.197876 949 511.770874 Z"/>
    <path id="Circle-copy" fill="#fdfdfd" fill-rule="evenodd" stroke="none" d="M 83.947502 601.567871 C 119.161438 770.227051 251.574478 903.199585 419.931946 939.231079 C 396.49176 908.808655 382.55127 870.689514 382.55127 829.314453 C 382.55127 786.512329 397.470001 747.19458 422.391144 716.277588 L 422.391144 716.271545 L 575.390686 563.271973 L 664.838562 652.719788 L 744.535156 274.86377 L 366.67923 354.560425 L 456.127014 444.008301 L 300.942535 599.19281 L 300.661743 599.19281 C 270.236603 622.640869 232.111099 636.586426 190.728455 636.586426 C 150.762817 636.586426 113.835106 623.579529 83.947502 601.567871 Z"/>
</svg>
