<?xml version="1.0" encoding="UTF-8"?>
<!-- Generated by Pixelmator Pro 3.7.1 -->
<svg width="1126" height="1178" viewBox="0 0 1126 1178" xmlns="http://www.w3.org/2000/svg">
    <path id="Rectangle" fill="#1f5da8" fill-rule="evenodd" stroke="none" d="M -83 1273 L 1251 1273 L 1251 -60 L -83 -60 Z"/>
    <path id="Circle" fill="#47aa4f" fill-rule="evenodd" stroke="none" d="M 1053.068481 588.770874 C 1053.068481 318.034912 833.593628 98.560059 562.857727 98.560059 C 292.121765 98.560059 72.646927 318.034912 72.646927 588.770874 C 72.646927 859.506836 292.121765 1078.981689 562.857727 1078.981689 C 833.593628 1078.981689 1053.068481 859.506836 1053.068481 588.770874 Z"/>
    <path id="Circle-copy" fill="#fdfdfd" fill-rule="evenodd" stroke="none" d="M 82.999771 689.469116 C 122.488625 878.603271 270.97644 1027.718506 459.772278 1068.124146 C 433.486481 1034.008545 417.853638 991.26178 417.853638 944.863831 C 417.853638 896.86554 434.583496 852.774719 462.530029 818.104431 L 462.530029 818.097656 L 634.103516 646.524109 L 734.410217 746.830811 L 823.781921 323.103577 L 400.054749 412.475281 L 500.361389 512.781982 L 326.337708 686.805725 L 326.022827 686.805725 C 291.904114 713.100342 249.150238 728.738831 202.74379 728.738831 C 157.926376 728.738831 116.515686 714.152954 82.999771 689.469116 Z"/>
</svg>
