<?xml version="1.0" encoding="UTF-8"?>
<!-- Generated by Pixelmator Pro 3.7.1 -->
<svg width="918" height="918" viewBox="0 0 918 918" xmlns="http://www.w3.org/2000/svg">
    <path id="Circle" fill="none" stroke="#fdfdfd" stroke-width="100" d="M 867.62854 458.770874 C 867.62854 233.012939 684.615601 50 458.857727 50 C 233.099808 50 50.086864 233.012939 50.086864 458.770874 C 50.086864 684.528809 233.099808 867.541748 458.857727 867.541748 C 684.615601 867.541748 867.62854 684.528809 867.62854 458.770874 Z"/>
    <path id="Circle-copy" fill="#fdfdfd" fill-rule="evenodd" stroke="none" d="M 264.689575 809.873779 C 271.615662 795.876099 280.037659 782.750366 289.746582 770.705505 L 289.746582 770.698364 L 470.229614 590.215271 L 575.745117 695.730774 L 669.757751 250 L 224.027069 344.012634 L 329.54248 449.528107 L 146.481995 632.588623 L 146.150772 632.588623 C 134.708252 641.407227 122.342461 649.086304 109.22319 655.456238 C 145.268433 720.540527 199.335815 774.258301 264.689575 809.873779 Z"/>
</svg>
